<?xml version="1.0" encoding="UTF-8"?>
<svg width="45px" height="59px" viewBox="0 0 45 59" version="1.1" xmlns="http://www.w3.org/2000/svg" xmlns:xlink="http://www.w3.org/1999/xlink">
    <!-- Generator: Sketch 47.1 (45422) - http://www.bohemiancoding.com/sketch -->
    <title>mark</title>
    <desc>Created with Sketch.</desc>
    <defs></defs>
    <g id="Page-1" stroke="none" stroke-width="1" fill="none" fill-rule="evenodd">
        <g id="large" transform="translate(-127.000000, -35.000000)">
            <g id="mark" transform="translate(127.000000, 35.000000)">
                <path d="M8.79182371,2.22675191 C6.87074354,3.34084008 5.08723942,4.87832784 3.89863894,6.44498486 C1.99933377,8.94835784 0.739321774,12.3086371 0.441660074,15.6642032 C0.257123461,17.7451193 0.43378959,19.8150903 0.966831228,21.8167203 C1.56818867,24.0747991 2.62367303,26.2401855 4.1040061,28.2527083 C4.76575639,29.1523473 4.12819472,31.2597618 2.51752643,33.4967884 C1.40159676,35.0466351 0.645610546,36.8428758 0.270555754,38.8356556 C-0.0885481907,40.7438078 -0.0782116218,42.7235478 0.301303111,44.7198887 C0.686117303,46.744142 1.43056014,48.6726655 2.51395848,50.4518341 C3.6599534,52.3339068 5.14012907,53.9696379 6.91340156,55.3136239 C8.40097548,56.440909 10.0471134,57.306875 11.8061666,57.887485 C13.5069781,58.4488233 15.2809852,58.7334462 17.0788661,58.7334462 C17.8420407,58.7334462 18.612666,58.6810777 19.3692818,58.577807 C21.4375925,58.2954882 23.4724799,57.5522216 25.4173814,56.368588 C27.0794177,55.3570898 28.7253982,53.9908995 30.3096217,52.3078796 C33.3394432,49.0891001 35.5774415,45.4932148 36.9614923,41.6201429 C38.2633753,37.976864 38.8105838,34.0919044 38.5879541,30.0731432 C38.3802258,26.3240276 37.5048705,22.482272 35.9862869,18.6547607 C34.5481396,15.030125 32.5544936,11.4674414 30.0605996,8.06563385 C28.0535213,5.32775458 25.8261743,3.25930227 23.4405257,1.9177252 C21.2394137,0.679890188 18.9050807,0.0523056906 16.5023269,0.0523056906 C13.9103667,0.0525151647 11.2444764,0.804422559 8.79182371,2.22675191 Z M6.38121298,32.0550439 C5.93950807,33.1251534 5.32016712,34.157611 4.67949589,35.0474207 C1.08383909,40.0413887 2.29374234,48.4758122 8.52354515,53.1974115 C11.0844957,55.1382417 14.093644,56.0762669 17.0788661,56.0762669 C17.7246655,56.0762669 18.3697828,56.0323297 19.0084988,55.9451361 C22.5998006,55.4549142 25.6912218,53.3335173 28.3692326,50.4884921 C39.8720497,38.2682949 37.1799245,22.276935 27.91201,9.63464746 C24.1202732,4.46241695 20.0969343,2.70922321 16.5014349,2.70948505 C11.7529096,2.709904 7.7512408,5.76864526 6.02109857,8.04908539 C3.36250158,11.553221 0.796828776,19.2663728 6.25007718,26.6802383 C6.33038539,26.7894173 6.40382388,26.9008123 6.47068786,27.0142253 C6.50061311,27.0434678 6.52943113,27.0743763 6.55701559,27.10694 C7.41885318,28.1243501 8.02997484,29.0431687 8.50334244,30.1282051 C9.064105,31.4135651 9.38676298,32.8654973 9.46957588,34.5918373 C9.50473422,35.3247576 8.93793643,35.9473533 8.20359758,35.9824437 C7.46925873,36.0175341 6.845458,35.4518312 6.81029966,34.7189109 C6.76154123,33.7024795 6.61735483,32.8296741 6.38121298,32.0550439 Z" id="outline" fill="#15141E"></path>
                <path d="M7.89344027,40.0798002 C7.45316855,42.3699816 7.95213736,44.6926621 9.24167286,46.5907389 C9.65427194,47.1980466 9.49547657,48.0241982 8.88699349,48.4360002 C8.27851041,48.8478022 7.45075978,48.6893136 7.0381607,48.082006 C5.35658319,45.6068796 4.70399882,42.5691246 5.27881144,39.5790958 C5.41734476,38.8584807 6.11495281,38.3863933 6.83696263,38.524659 C7.55897244,38.6629247 8.03197359,39.3591852 7.89344027,40.0798002 Z M10.6753098,10.5736097 C9.25741408,12.1388296 8.54750797,14.1415737 8.66975061,16.2262837 C8.71270311,16.9587901 8.15255988,17.5873565 7.41863568,17.630226 C6.68471147,17.6730956 6.05492846,17.1140344 6.01197595,16.381528 C5.84794382,13.5841454 6.80509906,10.883877 8.70051781,8.7915179 C10.5919745,6.70371818 13.200401,5.46086565 16.0342524,5.29532279 C17.7544265,5.1948864 19.449686,5.49786554 20.9996816,6.17940317 C21.6724654,6.47522821 21.9775868,7.25938728 21.6811892,7.93087147 C21.3847915,8.60235565 20.5991147,8.90688756 19.9263309,8.61106252 C18.7635081,8.09976589 17.4895154,7.87207615 16.1897717,7.94796472 C14.051719,8.07286166 12.0971632,9.00416052 10.6753098,10.5736097 Z" id="reflex" fill="#FFFFFF" fill-rule="nonzero"></path>
                <path d="M43.4914307,20.6397658 L40.4298649,21.3649653 C39.7145542,21.5344024 38.9970585,21.0930046 38.8272934,20.3790757 C38.6575283,19.6651467 39.0997804,18.949037 39.8150912,18.7795999 L42.8766569,18.0544005 C43.5919677,17.8849633 44.3094634,18.3263611 44.4792285,19.0402901 C44.6489936,19.754219 44.2067414,20.4703287 43.4914307,20.6397658 Z M42.6271412,25.7055545 L40.5056785,25.5577181 C39.772284,25.5066107 39.2192611,24.8717948 39.2704674,24.139817 C39.3216737,23.4078392 39.9577184,22.8558846 40.6911129,22.906992 L42.8125756,23.0548284 C43.5459702,23.1059357 44.098993,23.7407517 44.0477867,24.4727295 C43.9965804,25.2047073 43.3605358,25.7566619 42.6271412,25.7055545 Z M38.0189219,15.2547208 L39.8108212,14.1116729 C40.4302863,13.7165177 41.2534185,13.8973867 41.6493385,14.5156551 C42.0452586,15.1339235 41.8640395,15.9554657 41.2445744,16.3506209 L39.4526751,17.4936689 C38.83321,17.8888241 38.0100777,17.707955 37.6141577,17.0896866 C37.2182377,16.4714182 37.3994568,15.649876 38.0189219,15.2547208 Z" id="wink" fill="#15141E" fill-rule="nonzero"></path>
                <path d="M29.5179958,23.1326799 C28.3337849,22.0840615 26.6603648,22.352604 25.9925231,23.5478981 C25.6446385,24.1705372 24.8568965,24.3938146 24.2330522,24.0466021 C23.6092079,23.6993895 23.3854984,22.9131693 23.733383,22.2905301 C25.2117475,19.6445732 28.8221142,19.0651988 31.2346681,21.2015146 C31.7689768,21.6746448 31.8178295,22.4904987 31.3437835,23.0237753 C30.8697375,23.5570519 30.0523045,23.6058101 29.5179958,23.1326799 Z M27.1703428,35.1134434 C28.3374164,34.1056518 28.9829649,32.8797899 28.9847111,31.6470131 C28.985791,30.884592 29.6059272,30.2674013 30.369824,30.2684792 C31.1337207,30.2695571 31.7521059,30.8884953 31.751026,31.6509164 C31.7480603,33.7446455 30.717794,35.701066 28.9803258,37.2014048 C27.3776597,38.5853392 25.2646368,39.4940676 23.1325547,39.7075568 C18.8758477,40.1337797 14.974397,37.5796867 13.398263,33.6405673 C13.1149558,32.9325179 13.4603884,32.1293083 14.1698082,31.8465484 C14.8792281,31.5637885 15.6839923,31.9085538 15.9672994,32.6166032 C17.0999399,35.4473307 19.8682057,37.2595818 22.8564113,36.9603736 C24.4211538,36.8036932 25.9985345,36.1253235 27.1703428,35.1134434 Z M14.4066689,26.2597923 C13.1962409,26.2597923 12.2113286,25.2768873 12.2113286,24.0687976 C12.2113286,22.860708 13.1962409,21.8778553 14.4066689,21.8778553 C15.6170968,21.8778553 16.6019043,22.860708 16.6019043,24.0687976 C16.6019043,25.2768873 15.6170968,26.2597923 14.4066689,26.2597923 Z" id="face" fill="#15141E" fill-rule="nonzero"></path>
            </g>
        </g>
    </g>
</svg>